<svg width="96" height="96" viewBox="0 0 96 96" fill="none" xmlns="http://www.w3.org/2000/svg">
<rect width="96" height="96" rx="48" fill="#EDFAFA"/>
<path d="M69.333 30H26.6663C25.2519 30 23.8953 30.4214 22.8951 31.1716C21.8949 31.9217 21.333 32.9391 21.333 34V56C21.333 57.0609 21.8949 58.0783 22.8951 58.8284C23.8953 59.5786 25.2519 60 26.6663 60H45.333V62H37.333C36.6258 62 35.9475 62.2107 35.4474 62.5858C34.9473 62.9609 34.6663 63.4696 34.6663 64C34.6663 64.5304 34.9473 65.0391 35.4474 65.4142C35.9475 65.7893 36.6258 66 37.333 66H58.6663C59.3736 66 60.0519 65.7893 60.552 65.4142C61.0521 65.0391 61.333 64.5304 61.333 64C61.333 63.4696 61.0521 62.9609 60.552 62.5858C60.0519 62.2107 59.3736 62 58.6663 62H50.6663V60H69.333C70.7475 60 72.1041 59.5786 73.1042 58.8284C74.1044 58.0783 74.6663 57.0609 74.6663 56V34C74.6663 32.9391 74.1044 31.9217 73.1042 31.1716C72.1041 30.4214 70.7475 30 69.333 30ZM69.333 34V56H26.6663V34H69.333Z" fill="#036672"/>
<path d="M56 44.4682C56 43.9364 55.7703 43.4448 55.3703 43.1196L49.5337 38.3711C49.0457 37.9733 48.416 37.8884 47.8503 38.1499C47.2354 38.4292 46.8537 39.0415 46.8537 39.7443V41.104C43.0251 41.4191 40 44.8738 40 49.0749V50.5598C40 51.2525 40.456 51.8335 41.1097 51.971C41.2069 51.9899 41.3017 52 41.3954 52C41.9189 52 42.3943 51.695 42.6297 51.1832C43.4629 49.3766 45.048 48.1889 46.8537 47.981V49.1933C46.8537 49.8961 47.2354 50.5073 47.8503 50.7888C48.416 51.0481 49.0446 50.9654 49.5326 50.5687L55.3703 45.8191C55.7703 45.4928 56 45.0001 56 44.4682Z" fill="#036672"/>
</svg>
