<svg width="96" height="96" viewBox="0 0 96 96" fill="none" xmlns="http://www.w3.org/2000/svg">
<rect width="96" height="96" rx="48" fill="white"/>
<path d="M58.0316 66.4502C58.0316 66.5637 57.9888 66.6724 57.9127 66.7526C57.8366 66.8329 57.7333 66.8779 57.6256 66.8779H29.2676C29.1599 66.8779 29.0567 66.8329 28.9806 66.7526C28.9044 66.6724 28.8617 66.5637 28.8617 66.4502V36.5731C28.8617 36.4597 28.9044 36.3509 28.9806 36.2707C29.0567 36.1904 29.1599 36.1454 29.2676 36.1454H46.7112L51.5729 31.0233H29.2676C27.8709 31.0247 26.5319 31.6098 25.5443 32.6503C24.5567 33.6908 24.0013 35.1016 24 36.5731V66.4502C24.0013 67.9217 24.5567 69.3325 25.5443 70.373C26.5319 71.4135 27.8709 71.9986 29.2676 72H57.6256C59.0223 71.9986 60.3614 71.4135 61.349 70.373C62.3366 69.3325 62.8919 67.9217 62.8932 66.4502V48.0722L58.0316 53.1943V66.4502Z" fill="#192697"/>
<path d="M69.8551 26.2495C68.4876 24.8092 66.633 24 64.6993 24C62.7656 24 60.9111 24.8092 59.5436 26.2495L40.6342 46.1693C40.2952 46.527 40.0643 46.9823 39.9705 47.478L38.2519 56.5339C38.1798 56.906 38.1872 57.2904 38.2735 57.6591C38.3598 58.0279 38.5229 58.3718 38.7509 58.666C38.9789 58.9602 39.2662 59.1972 39.5919 59.36C39.9176 59.5228 40.2737 59.6072 40.6342 59.6071C40.7973 59.6065 40.96 59.5903 41.1203 59.5585L49.7133 57.7478C50.184 57.6483 50.6163 57.4041 50.9554 57.0461L69.8624 37.1263C70.5407 36.4121 71.0786 35.564 71.4454 34.6306C71.8122 33.6971 72.0007 32.6966 72 31.6863C71.9993 30.676 71.8095 29.6758 71.4415 28.7429C71.0734 27.8099 70.5344 26.9627 69.8551 26.2495ZM66.4179 29.8708C66.6439 30.1087 66.8232 30.3911 66.9456 30.702C67.0679 31.0129 67.1309 31.3462 67.1309 31.6828C67.1309 32.0193 67.0679 32.3526 66.9456 32.6635C66.8232 32.9744 66.6439 33.2569 66.4179 33.4947L65.115 34.8649L61.6778 31.2436L62.9807 29.8708C63.4366 29.3907 64.0548 29.121 64.6993 29.121C65.3439 29.121 65.9621 29.3907 66.4179 29.8708ZM48.0312 52.8664L43.7335 53.7731L44.594 49.2426L58.2406 34.8649L61.6778 38.4862L48.0312 52.8664Z" fill="#192697"/>
</svg>
