<svg width="96" height="96" viewBox="0 0 96 96" fill="none" xmlns="http://www.w3.org/2000/svg">
<rect width="96" height="96" rx="48" fill="white"/>
<path d="M71.9997 24H23.9997C23.2924 24 22.6142 24.2662 22.1141 24.7399C21.614 25.2137 21.333 25.8563 21.333 26.5263V69.4737C21.333 70.1437 21.614 70.7863 22.1141 71.2601C22.6142 71.7338 23.2924 72 23.9997 72H71.9997C72.7069 72 73.3852 71.7338 73.8853 71.2601C74.3854 70.7863 74.6663 70.1437 74.6663 69.4737V26.5263C74.6663 25.8563 74.3854 25.2137 73.8853 24.7399C73.3852 24.2662 72.7069 24 71.9997 24ZM69.333 34.1053H62.4797L66.4797 29.0526H69.333V34.1053ZM51.2397 34.1053L55.2397 29.0526H59.813L55.813 34.1053H51.2397ZM39.9997 34.1053L43.9997 29.0526H48.573L44.573 34.1053H39.9997ZM26.6663 29.0526H37.333L33.333 34.1053H26.6663V29.0526ZM69.333 66.9474H26.6663V39.1579H69.333V66.9474Z" fill="#192697"/>
<path d="M41.4103 41.9924C40.9893 42.2095 40.6378 42.5301 40.3929 42.9204C40.1479 43.3107 40.0185 43.7564 40.0183 44.2105V61.8947C40.0182 62.3491 40.1474 62.795 40.3923 63.1856C40.6372 63.5762 40.9888 63.897 41.41 64.1142C41.8312 64.3315 42.3064 64.4371 42.7856 64.4199C43.2648 64.4028 43.7303 64.2635 44.133 64.0168L58.5757 55.1747C58.9499 54.9457 59.2577 54.6315 59.4707 54.2608C59.6838 53.8901 59.7954 53.4747 59.7954 53.0526C59.7954 52.6305 59.6838 52.2152 59.4707 51.8445C59.2577 51.4738 58.9499 51.1595 58.5757 50.9305L44.133 42.0884C43.7302 41.842 43.2647 41.703 42.7856 41.6861C42.3064 41.6692 41.8314 41.7751 41.4103 41.9924ZM45.3517 48.8514L52.2157 53.0526L45.3517 57.2539V48.8514Z" fill="#192697"/>
</svg>
