<svg width="96" height="96" viewBox="0 0 96 96" fill="none" xmlns="http://www.w3.org/2000/svg">
<rect width="96" height="96" rx="48" fill="#EDFAFA"/>
<path d="M64.176 21.3335H42.208C41.1571 21.3311 40.1162 21.537 39.1453 21.9394C38.1745 22.3417 37.2931 22.9325 36.552 23.6775L29.0106 31.2189C28.2651 31.9596 27.674 32.841 27.2717 33.8119C26.8693 34.7828 26.6636 35.8239 26.6666 36.8749V69.3335C26.6452 70.7241 27.1761 72.0664 28.1429 73.0662C29.1097 74.066 30.4334 74.6416 31.824 74.6669H64.176C65.5665 74.6416 66.8903 74.066 67.8571 73.0662C68.8238 72.0664 69.3547 70.7241 69.3333 69.3335V26.6669C69.3547 25.2763 68.8238 23.9339 67.8571 22.9342C66.8903 21.9344 65.5665 21.3588 64.176 21.3335ZM40 27.7709V34.6669H33.104L40 27.7709ZM32 69.3335V40.0002H40C41.4145 40.0002 42.771 39.4383 43.7712 38.4381C44.7714 37.4379 45.3333 36.0813 45.3333 34.6669V26.6669L64 26.6082C64.0041 26.6275 64.0041 26.6475 64 26.6669L64.176 69.3335H32Z" fill="#036672"/>
<path d="M40 56.0002C39.2927 56.0002 38.6145 56.2811 38.1144 56.7812C37.6143 57.2813 37.3333 57.9596 37.3333 58.6669V64.0002C37.3333 64.7074 37.6143 65.3857 38.1144 65.8858C38.6145 66.3859 39.2927 66.6669 40 66.6669C40.7072 66.6669 41.3855 66.3859 41.8856 65.8858C42.3857 65.3857 42.6666 64.7074 42.6666 64.0002V58.6669C42.6666 57.9596 42.3857 57.2813 41.8856 56.7812C41.3855 56.2811 40.7072 56.0002 40 56.0002Z" fill="#036672"/>
<path d="M48 45.3335C47.2927 45.3335 46.6145 45.6145 46.1144 46.1146C45.6143 46.6147 45.3333 47.2929 45.3333 48.0002V64.0002C45.3333 64.7074 45.6143 65.3857 46.1144 65.8858C46.6145 66.3859 47.2927 66.6669 48 66.6669C48.7072 66.6669 49.3855 66.3859 49.8856 65.8858C50.3857 65.3857 50.6666 64.7074 50.6666 64.0002V48.0002C50.6666 47.2929 50.3857 46.6147 49.8856 46.1146C49.3855 45.6145 48.7072 45.3335 48 45.3335Z" fill="#036672"/>
<path d="M56 50.6669C55.2927 50.6669 54.6145 50.9478 54.1144 51.4479C53.6143 51.948 53.3333 52.6263 53.3333 53.3335V64.0002C53.3333 64.7074 53.6143 65.3857 54.1144 65.8858C54.6145 66.3859 55.2927 66.6669 56 66.6669C56.7072 66.6669 57.3855 66.3859 57.8856 65.8858C58.3857 65.3857 58.6666 64.7074 58.6666 64.0002V53.3335C58.6666 52.6263 58.3857 51.948 57.8856 51.4479C57.3855 50.9478 56.7072 50.6669 56 50.6669Z" fill="#036672"/>
</svg>
