<svg width="96" height="96" viewBox="0 0 96 96" fill="none" xmlns="http://www.w3.org/2000/svg">
<rect width="96" height="96" rx="48" fill="white"/>
<path d="M48.0003 58.6667C47.2931 58.6667 46.6148 58.3857 46.1147 57.8856C45.6146 57.3855 45.3337 56.7072 45.3337 56V26.6667C45.3337 25.9594 45.6146 25.2811 46.1147 24.781C46.6148 24.281 47.2931 24 48.0003 24C48.7076 24 49.3858 24.281 49.8859 24.781C50.386 25.2811 50.667 25.9594 50.667 26.6667V56C50.667 56.7072 50.386 57.3855 49.8859 57.8856C49.3858 58.3857 48.7076 58.6667 48.0003 58.6667Z" fill="#192697"/>
<path d="M48.0003 58.6667C47.2931 58.6667 46.6148 58.3857 46.1147 57.8856L35.4483 47.2187C35.1936 46.9727 34.9905 46.6784 34.8507 46.3531C34.711 46.0277 34.6374 45.6778 34.6343 45.3237C34.6312 44.9697 34.6987 44.6185 34.8328 44.2908C34.9669 43.9631 35.1649 43.6653 35.4153 43.4149C35.6657 43.1646 35.9634 42.9666 36.2911 42.8325C36.6188 42.6984 36.97 42.6309 37.3241 42.634C37.6781 42.6371 38.0281 42.7106 38.3534 42.8504C38.6787 42.9902 38.973 43.1933 39.219 43.448L48.0003 52.2293L56.7817 43.448C57.2846 42.9622 57.9582 42.6935 58.6574 42.6995C59.3566 42.7056 60.0254 42.9861 60.5198 43.4805C61.0143 43.9749 61.2947 44.6437 61.3008 45.3429C61.3069 46.0421 61.0381 46.7157 60.5523 47.2187L49.8859 57.8856C49.3858 58.3857 48.7076 58.6667 48.0003 58.6667Z" fill="#192697"/>
<path d="M61.3337 72H34.667C32.5453 72 30.5104 71.1571 29.0101 69.6569C27.5098 68.1566 26.667 66.1217 26.667 64V56C26.667 55.2928 26.9479 54.6145 27.448 54.1144C27.9481 53.6143 28.6264 53.3333 29.3337 53.3333C30.0409 53.3333 30.7192 53.6143 31.2193 54.1144C31.7194 54.6145 32.0003 55.2928 32.0003 56V64C32.0003 64.7072 32.2813 65.3855 32.7814 65.8856C33.2815 66.3857 33.9597 66.6667 34.667 66.6667H61.3337C62.0409 66.6667 62.7192 66.3857 63.2193 65.8856C63.7194 65.3855 64.0003 64.7072 64.0003 64V56C64.0003 55.2928 64.2813 54.6145 64.7814 54.1144C65.2815 53.6143 65.9597 53.3333 66.667 53.3333C67.3742 53.3333 68.0525 53.6143 68.5526 54.1144C69.0527 54.6145 69.3337 55.2928 69.3337 56V64C69.3337 66.1217 68.4908 68.1566 66.9905 69.6569C65.4902 71.1571 63.4554 72 61.3337 72Z" fill="#192697"/>
</svg>
